<?xml version="1.0" encoding="utf-8"?>
<!-- Generator: Adobe Illustrator 15.0.0, SVG Export Plug-In . SVG Version: 6.00 Build 0)  -->
<!DOCTYPE svg PUBLIC "-//W3C//DTD SVG 1.1//EN" "http://www.w3.org/Graphics/SVG/1.1/DTD/svg11.dtd">
<svg version="1.1" id="Слой_1" xmlns="http://www.w3.org/2000/svg" xmlns:xlink="http://www.w3.org/1999/xlink" x="0px" y="0px"
	 width="247px" height="77px" viewBox="0 0 247 77" enable-background="new 0 0 247 77" xml:space="preserve">
<text transform="matrix(1 0 0 1 88.5908 -71.1064)" fill="#FFFFFF" font-family="'PlayfairDisplay-Regular'" font-size="36">EASY</text>
<text transform="matrix(1 0 0 1 87.8672 -30.5703)" fill="#FFFFFF" font-family="'PlayfairDisplay-Regular'" font-size="36">LIGURIA</text>
<g>
	<g>
		
			<text transform="matrix(1 0 0 1 7.7725 -53.2754)" fill="#FFFFFF" font-family="'PlayfairDisplay-Regular'" font-size="60" letter-spacing="12">E</text>
	</g>
	<g>
		
			<text transform="matrix(1 0 0 1 45.4043 -31.3247)" fill="#FFFFFF" font-family="'PlayfairDisplay-Regular'" font-size="60" letter-spacing="12">L</text>
	</g>
	
		<text transform="matrix(1 0 0 1 22.3418 -40.1294)" fill="#E7B315" font-family="'PlayfairDisplay-Regular'" font-size="60" letter-spacing="-6">&amp;</text>
</g>
<g>
	<path fill="#FFFFFF" d="M108.788,30.894c-2.443-0.105-5.836-0.105-8.244-0.105c-2.162,0-6.908,0-10.441,0.105v-0.721
		c2.443-0.105,2.918-0.475,2.918-3.094V9.22c0-2.619-0.475-2.988-2.918-3.094V5.405c3.533,0.105,8.279,0.105,10.441,0.105
		c2.197,0,5.291,0,7.523-0.105c-0.176,1.688-0.246,3.428-0.246,4.254c0,0.861,0.035,1.688,0.105,2.232h-0.826
		c-0.475-4.254-1.02-5.66-4.834-5.66h-2.988c-2.443,0-2.918,0.369-2.918,2.988v8.49h2.391c3.129,0,3.059-3.023,3.34-4.746h0.826
		c-0.105,1.529-0.123,2.566-0.123,3.393c0,0.668,0.018,1.195,0.018,1.723c0,1.178,0.035,2.373,0.211,5.115h-0.826
		c-0.281-2.303-0.316-4.764-3.445-4.764H96.36v8.648c0,2.619,0.475,2.988,2.918,2.988h2.637c4.5,0,5.396-1.617,5.906-6.381h0.826
		c-0.07,0.65-0.105,1.6-0.105,2.602C108.542,27.185,108.612,29.065,108.788,30.894z"/>
	<path fill="#FFFFFF" d="M130.919,27.87c0.721,1.828,1.74,2.268,2.496,2.303v0.721c-0.984-0.07-2.496-0.105-3.867-0.105
		c-1.863,0-3.586,0.035-4.605,0.105v-0.721c1.74-0.07,2.549-0.334,2.549-1.336c0-0.422-0.141-0.967-0.422-1.688l-2.215-5.906h-8.684
		l-1.477,3.814c-0.492,1.248-0.721,2.215-0.721,2.953c0,1.564,1.072,2.109,3.129,2.162v0.721c-1.371-0.07-2.883-0.105-4.148-0.105
		c-1.213,0-1.969,0.035-2.689,0.105v-0.721c0.932-0.211,2.004-0.967,2.83-3.129l8.473-21.814h0.58L130.919,27.87z M120.565,9.782
		l-4.131,10.74h8.156L120.565,9.782z"/>
	<path fill="#FFFFFF" d="M146.792,6.337c0.58,0.369,0.896,0.51,1.23,0.51c0.457,0,0.65-0.545,0.791-1.582h0.826
		c-0.105,1.266-0.176,2.813-0.176,7.348h-0.826c-0.264-3.428-1.916-6.926-5.906-6.926c-2.566,0-4.395,1.705-4.395,4.184
		c0,3.27,2.813,4.57,6.047,6.592c3.744,2.338,6.486,4.236,6.486,8.104c0,4.57-3.463,6.838-7.646,6.838
		c-2.549,0-3.885-0.686-4.922-1.336c-0.58-0.369-0.932-0.51-1.23-0.51c-0.457,0-0.65,0.545-0.791,1.582h-0.826
		c0.105-1.477,0.141-3.551,0.141-8.631h0.826c0.299,4.359,1.951,8.174,6.557,8.174c2.338,0,4.676-1.406,4.676-4.799
		c0-2.918-2.268-4.57-5.607-6.574c-3.428-2.057-6.416-4.008-6.416-8.068c0-4.254,3.217-6.24,6.768-6.24
		C144.771,5.001,145.825,5.687,146.792,6.337z"/>
	<path fill="#FFFFFF" d="M173.792,5.405v0.721c-0.932,0.211-1.793,1.072-2.883,3.199l-5.643,11.197v6.557
		c0,2.619,0.457,2.988,2.918,3.094v0.721c-1.125-0.07-2.918-0.105-4.57-0.105c-1.881,0-3.604,0.035-4.623,0.105v-0.721
		c2.461-0.105,2.918-0.475,2.918-3.094v-5.432l-7.295-13.465c-0.984-1.775-1.582-2.021-2.092-2.021V5.405
		c0.932,0.07,1.934,0.105,3.164,0.105c1.582,0,3.498,0,5.045-0.105v0.756c-1.371,0-2.531,0.316-2.531,1.389
		c0,0.334,0.105,0.738,0.369,1.248l5.994,11.479l4.588-9.141c0.668-1.354,0.984-2.355,0.984-3.094c0-1.424-1.178-1.863-3.182-1.916
		V5.405c1.371,0.07,2.883,0.105,4.148,0.105C172.315,5.511,173.071,5.476,173.792,5.405z"/>
</g>
<g>
	<path fill="#FFFFFF" d="M98.555,46.662c-2.443,0.105-2.918,0.475-2.918,3.094v17.859c0,2.619,0.475,2.988,2.918,2.988h2.637
		c4.5,0,5.396-1.723,5.906-6.732h0.826c-0.07,0.756-0.105,1.793-0.105,2.953c0,0.896,0.07,2.777,0.246,4.605
		c-2.443-0.105-5.836-0.105-8.244-0.105c-2.162,0-6.908,0-10.441,0.105v-0.721c2.443-0.105,2.918-0.475,2.918-3.094V49.756
		c0-2.619-0.475-2.988-2.918-3.094v-0.721c1.002,0.07,2.742,0.105,4.605,0.105c1.652,0,3.463-0.035,4.57-0.105V46.662z"/>
	<path fill="#FFFFFF" d="M119.719,46.662c-2.443,0.105-2.918,0.475-2.918,3.094v17.859c0,2.619,0.475,2.988,2.918,3.094v0.721
		c-1.107-0.07-2.918-0.105-4.57-0.105c-1.863,0-3.604,0.035-4.605,0.105v-0.721c2.443-0.105,2.918-0.475,2.918-3.094V49.756
		c0-2.619-0.475-2.988-2.918-3.094v-0.721c1.002,0.07,2.742,0.105,4.605,0.105c1.652,0,3.463-0.035,4.57-0.105V46.662z"/>
	<path fill="#FFFFFF" d="M140.971,47.77c0.281,0.229,0.492,0.369,0.721,0.369c0.457,0,0.756-0.686,0.896-2.197h0.826
		c-0.105,1.758-0.141,4.096-0.141,8.279h-0.826c-0.334-2.021-0.686-3.955-1.811-5.326c-1.406-1.758-3.814-2.813-6.223-2.813
		c-4.781,0-7.928,4.904-7.928,12.639c0,8.648,2.707,12.498,8.578,12.498c1.723,0,3.023-0.615,3.744-1.125
		c0.896-0.615,1.037-1.072,1.037-1.969v-3.463c0-2.918-0.615-3.34-3.639-3.463v-0.721c1.266,0.088,3.463,0.123,5.08,0.123
		c1.582,0,2.883-0.035,3.744-0.123v0.721c-1.582,0.123-1.828,0.439-1.828,3.094v7.137h-0.721c-0.035-0.826-0.369-2.057-0.984-2.057
		c-0.281,0-0.457,0.07-1.178,0.615c-1.582,1.195-3.287,1.951-5.625,1.951c-7.453,0-11.795-4.799-11.795-12.814
		c0-8.402,4.887-13.693,11.584-13.693C137.613,45.432,139.266,46.557,140.971,47.77z"/>
	<path fill="#FFFFFF" d="M169.834,46.662c-2.443,0.105-2.9,0.826-2.9,3.463v10.828c0,3.34-0.404,5.801-1.477,7.629
		c-1.195,2.021-3.639,3.357-6.592,3.357c-2.303,0-4.465-0.475-6.047-1.951c-2.127-1.986-2.672-4.025-2.672-8.93V49.756
		c0-2.619-0.457-2.988-2.918-3.094v-0.721c1.02,0.07,2.742,0.105,4.605,0.105c1.67,0,3.463-0.035,4.588-0.105v0.721
		c-2.461,0.105-2.918,0.475-2.918,3.094v11.918c0,4.939,0.563,9,5.678,9c5.432,0,6.908-3.955,6.908-9.316V50.125
		c0-2.637-0.826-3.357-3.27-3.463v-0.721c0.861,0.07,2.443,0.105,3.674,0.105s2.549-0.035,3.34-0.105V46.662z"/>
	<path fill="#FFFFFF" d="M194.584,69.637c-1.02,1.477-1.916,2.303-3.85,2.303c-1.811,0-3.182-0.826-3.867-3.902l-0.791-3.586
		c-0.686-3.059-1.213-5.115-4.061-5.115h-3.428v8.279c0,2.619,0.475,2.988,2.918,3.094v0.721c-1.107-0.07-2.918-0.105-4.57-0.105
		c-1.863,0-3.604,0.035-4.605,0.105v-0.721c2.443-0.105,2.918-0.475,2.918-3.094V49.756c0-2.619-0.475-2.988-2.918-3.094v-0.721
		c1.002,0.07,2.813,0.105,4.395,0.105c2.268,0,4.57-0.07,5.432-0.07c5.801,0,8.684,2.742,8.684,6.258
		c0,2.496-1.564,6.082-6.996,6.926l0.439,0.07c3.199,0.527,4.359,1.758,5.045,4.746l0.896,3.674
		c0.439,2.092,0.844,2.953,1.846,2.953c0.879,0,1.301-0.527,1.969-1.371L194.584,69.637z M178.588,49.756v8.859h2.426
		c5.098,0,6.223-2.672,6.223-5.977c0-3.779-1.617-5.977-5.977-5.977C179.063,46.662,178.588,47.277,178.588,49.756z"/>
	<path fill="#FFFFFF" d="M204.832,46.662c-2.443,0.105-2.918,0.475-2.918,3.094v17.859c0,2.619,0.475,2.988,2.918,3.094v0.721
		c-1.107-0.07-2.918-0.105-4.57-0.105c-1.863,0-3.604,0.035-4.605,0.105v-0.721c2.443-0.105,2.918-0.475,2.918-3.094V49.756
		c0-2.619-0.475-2.988-2.918-3.094v-0.721c1.002,0.07,2.742,0.105,4.605,0.105c1.652,0,3.463-0.035,4.57-0.105V46.662z"/>
	<path fill="#FFFFFF" d="M226.752,68.406c0.721,1.828,1.74,2.268,2.496,2.303v0.721c-0.984-0.07-2.496-0.105-3.867-0.105
		c-1.863,0-3.586,0.035-4.605,0.105v-0.721c1.74-0.07,2.549-0.334,2.549-1.336c0-0.422-0.141-0.967-0.422-1.688l-2.215-5.906h-8.684
		l-1.477,3.814c-0.492,1.248-0.721,2.215-0.721,2.953c0,1.564,1.072,2.109,3.129,2.162v0.721c-1.371-0.07-2.883-0.105-4.148-0.105
		c-1.213,0-1.969,0.035-2.689,0.105v-0.721c0.932-0.211,2.004-0.967,2.83-3.129l8.473-21.814h0.58L226.752,68.406z M216.398,50.318
		l-4.131,10.74h8.156L216.398,50.318z"/>
</g>
<g>
	<g>
		<path fill="#FFFFFF" d="M41.435,48.725c-4.072-0.176-9.727-0.176-13.74-0.176c-3.604,0-11.514,0-17.402,0.176v-1.201
			c4.072-0.176,4.863-0.791,4.863-5.156V12.602c0-4.365-0.791-4.98-4.863-5.156V6.244C16.181,6.42,24.091,6.42,27.694,6.42
			c3.662,0,8.818,0,12.539-0.176c-0.293,2.813-0.41,5.713-0.41,7.09c0,1.436,0.059,2.813,0.176,3.721h-1.377
			c-0.791-7.09-1.699-9.434-8.057-9.434h-4.98c-4.072,0-4.863,0.615-4.863,4.98v14.15h3.984c5.215,0,5.098-5.039,5.566-7.91h1.377
			c-0.176,2.549-0.205,4.277-0.205,5.654c0,1.113,0.029,1.992,0.029,2.871c0,1.963,0.059,3.955,0.352,8.525h-1.377
			c-0.469-3.838-0.527-7.939-5.742-7.939h-3.984v14.414c0,4.365,0.791,4.98,4.863,4.98h4.395c7.5,0,8.994-2.695,9.844-10.635H41.2
			c-0.117,1.084-0.176,2.666-0.176,4.336C41.024,42.543,41.142,45.678,41.435,48.725z"/>
	</g>
	<g>
		<path fill="#FFFFFF" d="M63.217,29.396c-4.072,0.176-4.863,0.791-4.863,5.156v29.766c0,4.365,0.791,4.98,4.863,4.98h4.395
			c7.5,0,8.994-2.871,9.844-11.221h1.377c-0.117,1.26-0.176,2.988-0.176,4.922c0,1.494,0.117,4.629,0.41,7.676
			C74.994,70.5,69.34,70.5,65.326,70.5c-3.604,0-11.514,0-17.402,0.176v-1.201c4.072-0.176,4.863-0.791,4.863-5.156V34.552
			c0-4.365-0.791-4.98-4.863-5.156v-1.201c1.67,0.117,4.57,0.176,7.676,0.176c2.754,0,5.771-0.059,7.617-0.176V29.396z"/>
	</g>
	<g>
		<path fill="#E7B315" d="M71.355,26.656c0,4.072-2.52,6.826-5.684,8.408c-1.904,0.908-5.42,2.051-8.906,3.135
			c4.688,1.963,6.563,5.83,6.563,10.166c0,7.266-6.738,14.355-18.311,14.355c-10.371,0-19.424-5.713-19.424-14.941
			c0-8.701,8.027-12.012,11.074-12.803c-4.014-1.729-6.035-4.775-6.035-7.734c0-3.896,3.457-7.5,10.137-7.5
			c3.047,0,4.98,0.791,6.24,1.816c1.553,1.26,2.227,2.871,2.227,4.131c0,1.992-1.699,3.193-3.369,3.193
			c-1.611,0-3.135-1.084-3.135-3.018c0-1.729,1.318-3.105,3.193-3.281c-0.352-1.025-2.109-1.934-4.57-1.934
			c-4.072,0-6.943,2.52-6.943,7.148c0,2.227,0.645,4.6,3.047,6.826c1.377-0.234,2.988-0.352,3.721-0.352
			c1.436,0,2.402,0.469,2.402,1.377c0,0.732-0.674,1.143-1.67,1.143c-1.523,0-3.428-0.908-4.395-1.318
			c-4.629,1.377-7.793,4.248-7.793,9.844c0,8.262,7.09,12.949,16.084,12.949c8.467,0,15.762-4.131,15.762-10.986
			c0-2.139-0.732-6.563-6.035-8.701c-2.725,0.85-5.303,1.67-6.914,2.285c-2.988,1.143-5.273,2.637-5.273,5.215
			c0,3.135,3.223,4.805,5.508,4.805c1.084,0,3.369-0.41,3.604-1.318c-1.26-0.234-2.813-1.025-2.813-3.047
			c0-1.934,1.436-3.135,3.281-3.135c1.934,0,3.193,1.318,3.193,3.252c0,3.428-3.955,5.156-7.148,5.156
			c-3.398,0-7.441-2.051-7.441-7.031c0-4.131,2.842-6.885,8.291-8.76c3.604-1.201,10.195-2.695,14.648-4.717
			c4.014-1.875,5.156-3.721,5.156-5.771c0-3.428-3.252-6.064-6.973-6.064c-0.967,0-1.611,0.176-1.787,0.527
			c1.084,0.557,1.67,1.758,1.67,2.783c0,1.67-1.553,2.93-3.369,2.93c-1.553,0-3.164-0.967-3.164-2.988
			c0-3.135,3.721-4.16,6.592-4.16C67.518,18.541,71.355,21.558,71.355,26.656z"/>
	</g>
</g>
<text transform="matrix(1 0 0 1 -186.9092 -71.1064)" font-family="'PlayfairDisplay-Regular'" font-size="36">EASY</text>
<text transform="matrix(1 0 0 1 -187.6333 -30.5703)" font-family="'PlayfairDisplay-Regular'" font-size="36">LIGURIA</text>
<g>
	<g>
		
			<text transform="matrix(1 0 0 1 -267.7275 -53.2754)" font-family="'PlayfairDisplay-Regular'" font-size="60" letter-spacing="12">E</text>
	</g>
	<g>
		
			<text transform="matrix(1 0 0 1 -230.0962 -31.3247)" font-family="'PlayfairDisplay-Regular'" font-size="60" letter-spacing="12">L</text>
	</g>
	
		<text transform="matrix(1 0 0 1 -253.1577 -40.1294)" fill="#E7B315" font-family="'PlayfairDisplay-Regular'" font-size="60" letter-spacing="-6">&amp;</text>
</g>
<g>
	<path d="M-166.712,30.894c-2.443-0.105-5.836-0.105-8.244-0.105c-2.162,0-6.908,0-10.441,0.105v-0.721
		c2.443-0.105,2.918-0.475,2.918-3.094V9.22c0-2.619-0.475-2.988-2.918-3.094V5.405c3.533,0.105,8.279,0.105,10.441,0.105
		c2.197,0,5.291,0,7.523-0.105c-0.176,1.688-0.246,3.428-0.246,4.254c0,0.861,0.035,1.688,0.105,2.232h-0.826
		c-0.475-4.254-1.02-5.66-4.834-5.66h-2.988c-2.443,0-2.918,0.369-2.918,2.988v8.49h2.391c3.129,0,3.059-3.023,3.34-4.746h0.826
		c-0.105,1.529-0.123,2.566-0.123,3.393c0,0.668,0.018,1.195,0.018,1.723c0,1.178,0.035,2.373,0.211,5.115h-0.826
		c-0.281-2.303-0.316-4.764-3.445-4.764h-2.391v8.648c0,2.619,0.475,2.988,2.918,2.988h2.637c4.5,0,5.396-1.617,5.906-6.381h0.826
		c-0.07,0.65-0.105,1.6-0.105,2.602C-166.958,27.185-166.888,29.065-166.712,30.894z"/>
	<path d="M-144.581,27.87c0.721,1.828,1.74,2.268,2.496,2.303v0.721c-0.984-0.07-2.496-0.105-3.867-0.105
		c-1.863,0-3.586,0.035-4.605,0.105v-0.721c1.74-0.07,2.549-0.334,2.549-1.336c0-0.422-0.141-0.967-0.422-1.688l-2.215-5.906h-8.684
		l-1.477,3.814c-0.492,1.248-0.721,2.215-0.721,2.953c0,1.564,1.072,2.109,3.129,2.162v0.721c-1.371-0.07-2.883-0.105-4.148-0.105
		c-1.213,0-1.969,0.035-2.689,0.105v-0.721c0.932-0.211,2.004-0.967,2.83-3.129l8.473-21.814h0.58L-144.581,27.87z M-154.935,9.782
		l-4.131,10.74h8.156L-154.935,9.782z"/>
	<path d="M-128.708,6.337c0.58,0.369,0.896,0.51,1.23,0.51c0.457,0,0.65-0.545,0.791-1.582h0.826
		c-0.105,1.266-0.176,2.813-0.176,7.348h-0.826c-0.264-3.428-1.916-6.926-5.906-6.926c-2.566,0-4.395,1.705-4.395,4.184
		c0,3.27,2.813,4.57,6.047,6.592c3.744,2.338,6.486,4.236,6.486,8.104c0,4.57-3.463,6.838-7.646,6.838
		c-2.549,0-3.885-0.686-4.922-1.336c-0.58-0.369-0.932-0.51-1.23-0.51c-0.457,0-0.65,0.545-0.791,1.582h-0.826
		c0.105-1.477,0.141-3.551,0.141-8.631h0.826c0.299,4.359,1.951,8.174,6.557,8.174c2.338,0,4.676-1.406,4.676-4.799
		c0-2.918-2.268-4.57-5.607-6.574c-3.428-2.057-6.416-4.008-6.416-8.068c0-4.254,3.217-6.24,6.768-6.24
		C-130.729,5.001-129.675,5.687-128.708,6.337z"/>
	<path d="M-101.708,5.405v0.721c-0.932,0.211-1.793,1.072-2.883,3.199l-5.643,11.197v6.557c0,2.619,0.457,2.988,2.918,3.094v0.721
		c-1.125-0.07-2.918-0.105-4.57-0.105c-1.881,0-3.604,0.035-4.623,0.105v-0.721c2.461-0.105,2.918-0.475,2.918-3.094v-5.432
		l-7.295-13.465c-0.984-1.775-1.582-2.021-2.092-2.021V5.405c0.932,0.07,1.934,0.105,3.164,0.105c1.582,0,3.498,0,5.045-0.105v0.756
		c-1.371,0-2.531,0.316-2.531,1.389c0,0.334,0.105,0.738,0.369,1.248l5.994,11.479l4.588-9.141c0.668-1.354,0.984-2.355,0.984-3.094
		c0-1.424-1.178-1.863-3.182-1.916V5.405c1.371,0.07,2.883,0.105,4.148,0.105C-103.185,5.511-102.429,5.476-101.708,5.405z"/>
</g>
<g>
	<path d="M-176.946,46.662c-2.443,0.105-2.918,0.475-2.918,3.094v17.859c0,2.619,0.475,2.988,2.918,2.988h2.637
		c4.5,0,5.396-1.723,5.906-6.732h0.826c-0.07,0.756-0.105,1.793-0.105,2.953c0,0.896,0.07,2.777,0.246,4.605
		c-2.443-0.105-5.836-0.105-8.244-0.105c-2.162,0-6.908,0-10.441,0.105v-0.721c2.443-0.105,2.918-0.475,2.918-3.094V49.756
		c0-2.619-0.475-2.988-2.918-3.094v-0.721c1.002,0.07,2.742,0.105,4.605,0.105c1.652,0,3.463-0.035,4.57-0.105V46.662z"/>
	<path d="M-155.782,46.662c-2.443,0.105-2.918,0.475-2.918,3.094v17.859c0,2.619,0.475,2.988,2.918,3.094v0.721
		c-1.107-0.07-2.918-0.105-4.57-0.105c-1.863,0-3.604,0.035-4.605,0.105v-0.721c2.443-0.105,2.918-0.475,2.918-3.094V49.756
		c0-2.619-0.475-2.988-2.918-3.094v-0.721c1.002,0.07,2.742,0.105,4.605,0.105c1.652,0,3.463-0.035,4.57-0.105V46.662z"/>
	<path d="M-134.529,47.77c0.281,0.229,0.492,0.369,0.721,0.369c0.457,0,0.756-0.686,0.896-2.197h0.826
		c-0.105,1.758-0.141,4.096-0.141,8.279h-0.826c-0.334-2.021-0.686-3.955-1.811-5.326c-1.406-1.758-3.814-2.813-6.223-2.813
		c-4.781,0-7.928,4.904-7.928,12.639c0,8.648,2.707,12.498,8.578,12.498c1.723,0,3.023-0.615,3.744-1.125
		c0.896-0.615,1.037-1.072,1.037-1.969v-3.463c0-2.918-0.615-3.34-3.639-3.463v-0.721c1.266,0.088,3.463,0.123,5.08,0.123
		c1.582,0,2.883-0.035,3.744-0.123v0.721c-1.582,0.123-1.828,0.439-1.828,3.094v7.137h-0.721c-0.035-0.826-0.369-2.057-0.984-2.057
		c-0.281,0-0.457,0.07-1.178,0.615c-1.582,1.195-3.287,1.951-5.625,1.951c-7.453,0-11.795-4.799-11.795-12.814
		c0-8.402,4.887-13.693,11.584-13.693C-137.887,45.432-136.234,46.557-134.529,47.77z"/>
	<path d="M-105.666,46.662c-2.443,0.105-2.9,0.826-2.9,3.463v10.828c0,3.34-0.404,5.801-1.477,7.629
		c-1.195,2.021-3.639,3.357-6.592,3.357c-2.303,0-4.465-0.475-6.047-1.951c-2.127-1.986-2.672-4.025-2.672-8.93V49.756
		c0-2.619-0.457-2.988-2.918-3.094v-0.721c1.02,0.07,2.742,0.105,4.605,0.105c1.67,0,3.463-0.035,4.588-0.105v0.721
		c-2.461,0.105-2.918,0.475-2.918,3.094v11.918c0,4.939,0.563,9,5.678,9c5.432,0,6.908-3.955,6.908-9.316V50.125
		c0-2.637-0.826-3.357-3.27-3.463v-0.721c0.861,0.07,2.443,0.105,3.674,0.105s2.549-0.035,3.34-0.105V46.662z"/>
	<path d="M-80.916,69.637c-1.02,1.477-1.916,2.303-3.85,2.303c-1.811,0-3.182-0.826-3.867-3.902l-0.791-3.586
		c-0.686-3.059-1.213-5.115-4.061-5.115h-3.428v8.279c0,2.619,0.475,2.988,2.918,3.094v0.721c-1.107-0.07-2.918-0.105-4.57-0.105
		c-1.863,0-3.604,0.035-4.605,0.105v-0.721c2.443-0.105,2.918-0.475,2.918-3.094V49.756c0-2.619-0.475-2.988-2.918-3.094v-0.721
		c1.002,0.07,2.813,0.105,4.395,0.105c2.268,0,4.57-0.07,5.432-0.07c5.801,0,8.684,2.742,8.684,6.258
		c0,2.496-1.564,6.082-6.996,6.926l0.439,0.07c3.199,0.527,4.359,1.758,5.045,4.746l0.896,3.674
		c0.439,2.092,0.844,2.953,1.846,2.953c0.879,0,1.301-0.527,1.969-1.371L-80.916,69.637z M-96.912,49.756v8.859h2.426
		c5.098,0,6.223-2.672,6.223-5.977c0-3.779-1.617-5.977-5.977-5.977C-96.438,46.662-96.912,47.277-96.912,49.756z"/>
	<path d="M-70.668,46.662c-2.443,0.105-2.918,0.475-2.918,3.094v17.859c0,2.619,0.475,2.988,2.918,3.094v0.721
		c-1.107-0.07-2.918-0.105-4.57-0.105c-1.863,0-3.604,0.035-4.605,0.105v-0.721c2.443-0.105,2.918-0.475,2.918-3.094V49.756
		c0-2.619-0.475-2.988-2.918-3.094v-0.721c1.002,0.07,2.742,0.105,4.605,0.105c1.652,0,3.463-0.035,4.57-0.105V46.662z"/>
	<path d="M-48.748,68.406c0.721,1.828,1.74,2.268,2.496,2.303v0.721c-0.984-0.07-2.496-0.105-3.867-0.105
		c-1.863,0-3.586,0.035-4.605,0.105v-0.721c1.74-0.07,2.549-0.334,2.549-1.336c0-0.422-0.141-0.967-0.422-1.688l-2.215-5.906h-8.684
		l-1.477,3.814c-0.492,1.248-0.721,2.215-0.721,2.953c0,1.564,1.072,2.109,3.129,2.162v0.721c-1.371-0.07-2.883-0.105-4.148-0.105
		c-1.213,0-1.969,0.035-2.689,0.105v-0.721c0.932-0.211,2.004-0.967,2.83-3.129l8.473-21.814h0.58L-48.748,68.406z M-59.102,50.318
		l-4.131,10.74h8.156L-59.102,50.318z"/>
</g>
<g>
	<g>
		<path d="M-234.065,48.725c-4.072-0.176-9.727-0.176-13.74-0.176c-3.604,0-11.514,0-17.402,0.176v-1.201
			c4.072-0.176,4.863-0.791,4.863-5.156V12.602c0-4.365-0.791-4.98-4.863-5.156V6.244c5.889,0.176,13.799,0.176,17.402,0.176
			c3.662,0,8.818,0,12.539-0.176c-0.293,2.813-0.41,5.713-0.41,7.09c0,1.436,0.059,2.813,0.176,3.721h-1.377
			c-0.791-7.09-1.699-9.434-8.057-9.434h-4.98c-4.072,0-4.863,0.615-4.863,4.98v14.15h3.984c5.215,0,5.098-5.039,5.566-7.91h1.377
			c-0.176,2.549-0.205,4.277-0.205,5.654c0,1.113,0.029,1.992,0.029,2.871c0,1.963,0.059,3.955,0.352,8.525h-1.377
			c-0.469-3.838-0.527-7.939-5.742-7.939h-3.984v14.414c0,4.365,0.791,4.98,4.863,4.98h4.395c7.5,0,8.994-2.695,9.844-10.635h1.377
			c-0.117,1.084-0.176,2.666-0.176,4.336C-234.476,42.543-234.358,45.678-234.065,48.725z"/>
	</g>
	<g>
		<path d="M-212.284,29.396c-4.072,0.176-4.863,0.791-4.863,5.156v29.766c0,4.365,0.791,4.98,4.863,4.98h4.395
			c7.5,0,8.994-2.871,9.844-11.221h1.377c-0.117,1.26-0.176,2.988-0.176,4.922c0,1.494,0.117,4.629,0.41,7.676
			c-4.072-0.176-9.727-0.176-13.74-0.176c-3.604,0-11.514,0-17.402,0.176v-1.201c4.072-0.176,4.863-0.791,4.863-5.156V34.552
			c0-4.365-0.791-4.98-4.863-5.156v-1.201c1.67,0.117,4.57,0.176,7.676,0.176c2.754,0,5.771-0.059,7.617-0.176V29.396z"/>
	</g>
	<g>
		<path fill="#E7B315" d="M-204.144,26.656c0,4.072-2.52,6.826-5.684,8.408c-1.904,0.908-5.42,2.051-8.906,3.135
			c4.688,1.963,6.563,5.83,6.563,10.166c0,7.266-6.738,14.355-18.311,14.355c-10.371,0-19.424-5.713-19.424-14.941
			c0-8.701,8.027-12.012,11.074-12.803c-4.014-1.729-6.035-4.775-6.035-7.734c0-3.896,3.457-7.5,10.137-7.5
			c3.047,0,4.98,0.791,6.24,1.816c1.553,1.26,2.227,2.871,2.227,4.131c0,1.992-1.699,3.193-3.369,3.193
			c-1.611,0-3.135-1.084-3.135-3.018c0-1.729,1.318-3.105,3.193-3.281c-0.352-1.025-2.109-1.934-4.57-1.934
			c-4.072,0-6.943,2.52-6.943,7.148c0,2.227,0.645,4.6,3.047,6.826c1.377-0.234,2.988-0.352,3.721-0.352
			c1.436,0,2.402,0.469,2.402,1.377c0,0.732-0.674,1.143-1.67,1.143c-1.523,0-3.428-0.908-4.395-1.318
			c-4.629,1.377-7.793,4.248-7.793,9.844c0,8.262,7.09,12.949,16.084,12.949c8.467,0,15.762-4.131,15.762-10.986
			c0-2.139-0.732-6.563-6.035-8.701c-2.725,0.85-5.303,1.67-6.914,2.285c-2.988,1.143-5.273,2.637-5.273,5.215
			c0,3.135,3.223,4.805,5.508,4.805c1.084,0,3.369-0.41,3.604-1.318c-1.26-0.234-2.813-1.025-2.813-3.047
			c0-1.934,1.436-3.135,3.281-3.135c1.934,0,3.193,1.318,3.193,3.252c0,3.428-3.955,5.156-7.148,5.156
			c-3.398,0-7.441-2.051-7.441-7.031c0-4.131,2.842-6.885,8.291-8.76c3.604-1.201,10.195-2.695,14.648-4.717
			c4.014-1.875,5.156-3.721,5.156-5.771c0-3.428-3.252-6.064-6.973-6.064c-0.967,0-1.611,0.176-1.787,0.527
			c1.084,0.557,1.67,1.758,1.67,2.783c0,1.67-1.553,2.93-3.369,2.93c-1.553,0-3.164-0.967-3.164-2.988
			c0-3.135,3.721-4.16,6.592-4.16C-207.982,18.541-204.144,21.558-204.144,26.656z"/>
	</g>
</g>
<g>
	<path fill="#FFFFFF" d="M-426.305,282.475c-1.998,0.086-2.386,0.387-2.386,2.529v14.604c0,2.142,0.388,2.443,2.386,2.529v0.59
		c-0.819-0.058-2.228-0.086-3.766-0.086c-1.351,0-2.817,0.028-3.737,0.086v-0.59c1.998-0.086,2.386-0.388,2.386-2.529v-14.604
		c0-2.143-0.388-2.529-2.386-2.529h-4.801c-1.998,0-2.386,0.387-2.386,2.529v14.604c0,2.142,0.388,2.443,2.386,2.529v0.59
		c-0.906-0.058-2.386-0.086-3.737-0.086c-1.523,0-2.946,0.028-3.766,0.086v-0.59c1.998-0.086,2.386-0.388,2.386-2.529v-14.604
		c0-2.143-0.388-2.443-2.386-2.529v-0.59c0.819,0.057,2.242,0.086,3.766,0.086c2.3,0,4.801-0.086,6.181-0.086
		s3.795,0.086,6.095,0.086c1.538,0,2.947-0.029,3.766-0.086V282.475z"/>
	<path fill="#FFFFFF" d="M-418.714,299.607c0,2.142,0.503,2.443,2.976,2.529v0.59c-1.021-0.058-2.731-0.086-4.327-0.086
		c-1.523,0-2.946,0.028-3.766,0.086v-0.59c1.998-0.086,2.386-0.388,2.386-2.529v-14.604c0-2.143-0.388-2.443-2.386-2.529v-0.59
		c0.819,0.057,2.3,0.086,3.593,0.086c1.854,0,3.737-0.058,4.441-0.058c4.744,0,7.101,2.386,7.101,5.808
		c0,2.846-1.653,6.583-7.748,6.583h-2.271V299.607z M-418.714,285.004v8.711h1.984c4.168,0,5.088-2.674,5.088-5.678
		c0-3.709-1.323-5.563-4.887-5.563C-418.326,282.475-418.714,282.977-418.714,285.004z"/>
	<path fill="#FFFFFF" d="M-387.592,292.133c0,6.584-3.881,11.011-9.357,11.011c-5.592,0-9.329-3.925-9.329-10.665
		c0-6.584,3.881-11.011,9.357-11.011C-391.33,281.468-387.592,285.392-387.592,292.133z M-403.346,292.363
		c0,6.267,2.889,10.248,6.512,10.248c3.823,0,6.295-4.269,6.295-10.363c0-6.268-2.874-10.248-6.496-10.248
		C-400.874,282-403.346,286.269-403.346,292.363z"/>
	<path fill="#FFFFFF" d="M-369.164,302.137c-0.144,1.381-0.201,2.803-0.201,3.479c0,0.705,0.028,1.381,0.086,1.826h-0.676
		c-0.388-3.479-0.819-4.715-3.938-4.715h-8.395c-3.118,0-3.564,1.236-3.952,4.715h-0.676c0.058-0.445,0.086-1.121,0.086-1.826
		c0-0.676-0.058-2.098-0.201-3.479h0.532c4.527,0,5.002-9.299,5.477-17.133c0.014-0.216,0.014-0.402,0.014-0.59
		c0-1.537-0.488-1.868-2.4-1.939v-0.59c0.819,0.057,2.085,0.086,3.033,0.086c0.877,0,1.739-0.086,2.587-0.086
		c1.51,0,2.53,0.086,4.212,0.086c1.15,0,2.674-0.029,3.507-0.086v0.59c-1.997,0.086-2.386,0.387-2.386,2.529v14.604
		c0,2.142,0.389,2.529,2.386,2.529H-369.164z M-375.201,285.004c0-2.143-0.374-2.529-2.372-2.529h-0.388
		c-2.084,0-2.185,0.445-2.386,2.529c-0.532,5.777-0.518,14.805-4.169,17.133h6.942c1.998,0,2.372-0.388,2.372-2.529V285.004z"/>
	<path fill="#FFFFFF" d="M-351.914,300.254c0.59,1.495,1.424,1.854,2.042,1.883v0.59c-0.806-0.058-2.042-0.086-3.163-0.086
		c-1.523,0-2.932,0.028-3.766,0.086v-0.59c1.423-0.057,2.084-0.272,2.084-1.092c0-0.346-0.114-0.791-0.345-1.38l-1.811-4.829h-7.102
		l-1.207,3.119c-0.402,1.02-0.589,1.811-0.589,2.414c0,1.279,0.876,1.725,2.559,1.768v0.59c-1.122-0.058-2.357-0.086-3.393-0.086
		c-0.992,0-1.61,0.028-2.199,0.086v-0.59c0.762-0.172,1.639-0.79,2.314-2.559l6.928-17.838h0.475L-351.914,300.254z
		 M-360.379,285.464l-3.378,8.782h6.67L-360.379,285.464z"/>
	<path fill="#FFFFFF" d="M-321.152,301.26c-0.762,1.107-1.494,1.884-3.147,1.884c-1.38,0-2.559-0.561-3.147-3.19l-0.819-3.637
		c-0.561-2.444-1.007-4.098-4.011-4.098h-1.94v7.389c0,2.142,0.374,2.443,2.386,2.529v0.59c-0.833-0.058-2.242-0.086-3.766-0.086
		c-1.365,0-2.832,0.028-3.752,0.086v-0.59c2.013-0.086,2.387-0.388,2.387-2.529v-7.389h-1.94c-3.004,0-3.436,1.653-3.996,4.098
		l-0.834,3.637c-0.589,2.63-1.768,3.19-3.147,3.19c-1.653,0-2.386-0.776-3.148-1.884l0.446-0.33
		c0.546,0.689,0.891,1.121,1.609,1.121c0.819,0,1.05-0.661,1.452-2.414l0.848-3.709c0.748-3.291,3.091-4.14,5.864-4.254
		l-5.533-7.059c-1.121-1.408-2.271-1.969-3.479-2.141v-0.59c0.589,0.057,1.495,0.086,2.501,0.086c1.035,0,2.271-0.029,3.392-0.086
		v0.59c-1.25,0.027-1.825,0.387-1.825,1.063c0,0.647,0.532,1.596,1.495,2.818l2.832,3.593c0.732,0.948,1.825,1.682,3.464,1.71
		v-6.654c0-2.143-0.374-2.443-2.387-2.529v-0.59c0.92,0.057,2.387,0.086,3.752,0.086c1.523,0,2.933-0.029,3.766-0.086v0.59
		c-2.012,0.086-2.386,0.387-2.386,2.529v6.654c1.653-0.028,2.731-0.762,3.464-1.71l2.832-3.593c0.963-1.223,1.495-2.171,1.495-2.818
		c0-0.676-0.561-1.035-1.812-1.063v-0.59c1.106,0.057,2.343,0.086,3.378,0.086c1.006,0,1.912-0.029,2.501-0.086v0.59
		c-1.207,0.172-2.357,0.732-3.464,2.141l-5.549,7.059c2.774,0.114,5.117,0.963,5.865,4.254l0.848,3.709
		c0.402,1.753,0.633,2.414,1.452,2.414c0.719,0,1.078-0.432,1.609-1.121L-321.152,301.26z"/>
	<path fill="#FFFFFF" d="M-304.433,300.254c0.59,1.495,1.424,1.854,2.042,1.883v0.59c-0.806-0.058-2.042-0.086-3.163-0.086
		c-1.523,0-2.932,0.028-3.766,0.086v-0.59c1.423-0.057,2.084-0.272,2.084-1.092c0-0.346-0.114-0.791-0.345-1.38l-1.811-4.829h-7.102
		l-1.207,3.119c-0.402,1.02-0.589,1.811-0.589,2.414c0,1.279,0.876,1.725,2.559,1.768v0.59c-1.122-0.058-2.357-0.086-3.393-0.086
		c-0.992,0-1.61,0.028-2.199,0.086v-0.59c0.762-0.172,1.639-0.79,2.314-2.559l6.928-17.838h0.475L-304.433,300.254z
		 M-312.899,285.464l-3.378,8.782h6.67L-312.899,285.464z"/>
</g>
<g>
	<path fill="#FFFFFF" d="M-432.118,323.747c6.985,0.928,9.012,4.377,9.012,7.956c0,5.023-3.989,8.56-10.608,8.56
		c-1.315,0-3.967-0.129-7.589-0.129c-2.07,0-4.248,0.043-5.477,0.129v-0.884c2.997-0.13,3.579-0.582,3.579-3.795v-21.905
		c0-3.213-0.582-3.665-3.579-3.795V309c1.229,0.086,3.45,0.129,5.39,0.129c2.782,0,5.606-0.086,6.663-0.086
		c6.188,0,9.314,2.867,9.314,6.942c0,3.126-1.768,6.166-6.705,7.676V323.747z M-439.104,313.679v9.982h2.976
		c5.196,0,6.49-3.363,6.49-7.201c0-4.334-1.768-6.576-6.188-6.576C-438.521,309.884-439.104,310.639-439.104,313.679z
		 M-427.525,331.509c0-4.484-2.264-7.093-7.87-7.093h-3.708v11.168c0,3.083,0.582,3.665,3.32,3.665
		C-430.005,339.249-427.525,336.468-427.525,331.509z"/>
	<path fill="#FFFFFF" d="M-380.14,309.884c-2.997,0.13-3.579,0.582-3.579,3.795v21.905c0,3.213,0.582,3.665,3.579,3.795v0.884
		c-1.229-0.086-3.343-0.129-5.649-0.129c-2.026,0-4.226,0.043-5.605,0.129v-0.884c2.997-0.13,3.579-0.582,3.579-3.795v-20.893
		l-15.243,21.561c0.107,2.609,0.797,2.997,3.578,3.127v0.884c-1.357-0.086-3.578-0.129-5.605-0.129c-2.285,0-4.42,0.043-5.649,0.129
		v-0.884c2.997-0.13,3.58-0.582,3.58-3.795v-21.905c0-3.213-0.583-3.665-3.58-3.795V309c1.229,0.086,3.364,0.129,5.649,0.129
		c2.027,0,4.248-0.043,5.605-0.129v0.884c-2.996,0.13-3.578,0.582-3.578,3.795v20.913l15.222-21.604
		c-0.087-2.587-0.798-2.975-3.558-3.104V309c1.38,0.086,3.579,0.129,5.605,0.129c2.307,0,4.42-0.043,5.649-0.129V309.884z"/>
	<path fill="#FFFFFF" d="M-340.926,309.884c-2.996,0.13-3.579,0.582-3.579,3.795v21.905c0,3.213,0.583,3.665,3.579,3.795v0.884
		c-1.229-0.086-3.363-0.129-5.648-0.129c-2.394,0-4.959,0.043-6.49,0.129v-0.884c3.709-0.13,4.464-0.582,4.464-3.795v-21.905
		c0-3.213-0.583-3.795-3.579-3.795h-0.583c-3.126,0-3.298,0.669-3.579,3.795c-0.884,10.37-0.754,27.209-9.228,27.209
		c-1.94,0-4.01-0.798-4.01-3.019c0-1.53,1.1-2.501,2.608-2.501c1.272,0,2.242,0.733,2.242,1.94c0,1.315-0.668,1.983-1.897,2.695
		c0.41,0.043,0.841,0.043,1.057,0.043c6.813,0,7.503-14.187,8.215-26.368c0.021-0.367,0.043-0.69,0.043-0.992
		c0-2.221-0.798-2.694-3.622-2.803V309c1.25,0.086,3.147,0.129,4.549,0.129c1.337,0,2.609-0.129,3.881-0.129
		c2.265,0,3.816,0.129,6.317,0.129c1.726,0,4.032-0.043,5.261-0.129V309.884z"/>
	<path fill="#FFFFFF" d="M-301.712,309.884c-2.997,0.13-3.579,0.582-3.579,3.795v21.905c0,3.213,0.582,3.665,3.579,3.795v0.884
		c-1.229-0.086-3.363-0.129-5.648-0.129c-2.394,0-4.959,0.043-6.49,0.129v-0.884c3.709-0.13,4.464-0.582,4.464-3.795v-21.905
		c0-3.213-0.583-3.795-3.579-3.795h-0.583c-3.126,0-3.298,0.669-3.578,3.795c-0.885,10.37-0.755,27.209-9.229,27.209
		c-1.94,0-4.01-0.798-4.01-3.019c0-1.53,1.1-2.501,2.608-2.501c1.272,0,2.242,0.733,2.242,1.94c0,1.315-0.668,1.983-1.897,2.695
		c0.41,0.043,0.841,0.043,1.057,0.043c6.813,0,7.503-14.187,8.215-26.368c0.021-0.367,0.043-0.69,0.043-0.992
		c0-2.221-0.798-2.694-3.622-2.803V309c1.25,0.086,3.147,0.129,4.549,0.129c1.337,0,2.609-0.129,3.881-0.129
		c2.265,0,3.816,0.129,6.317,0.129c1.726,0,4.032-0.043,5.261-0.129V309.884z"/>
</g>
<g>
	<g>
		<path fill="#FFFFFF" d="M-485.837,279.278c-4.072,0.176-4.863,0.791-4.863,5.156V314.2c0,4.365,0.791,4.98,4.863,5.156v1.201
			c-1.67-0.117-4.541-0.176-7.676-0.176c-2.754,0-5.742,0.059-7.617,0.176v-1.201c4.072-0.176,4.863-0.791,4.863-5.156v-29.766
			c0-4.365-0.791-5.156-4.863-5.156h-9.785c-4.072,0-4.863,0.791-4.863,5.156V314.2c0,4.365,0.791,4.98,4.863,5.156v1.201
			c-1.846-0.117-4.863-0.176-7.617-0.176c-3.105,0-6.006,0.059-7.676,0.176v-1.201c4.072-0.176,4.863-0.791,4.863-5.156v-29.766
			c0-4.365-0.791-4.98-4.863-5.156v-1.201c1.67,0.117,4.57,0.176,7.676,0.176c4.688,0,9.785-0.176,12.598-0.176
			s7.734,0.176,12.422,0.176c3.135,0,6.006-0.059,7.676-0.176V279.278z"/>
	</g>
	<g>
		<path fill="#FFFFFF" d="M-468.655,320.066c9.492,1.26,12.246,5.947,12.246,10.811c0,6.826-5.42,11.631-14.414,11.631
			c-1.787,0-5.391-0.176-10.313-0.176c-2.813,0-5.771,0.059-7.441,0.176v-1.201c4.072-0.176,4.863-0.791,4.863-5.156v-29.766
			c0-4.365-0.791-4.98-4.863-5.156v-1.201c1.67,0.117,4.688,0.176,7.324,0.176c3.779,0,7.617-0.117,9.053-0.117
			c8.408,0,12.656,3.896,12.656,9.434c0,4.248-2.402,8.379-9.111,10.43V320.066z M-478.147,306.385v13.564h4.043
			c7.061,0,8.818-4.57,8.818-9.785c0-5.889-2.402-8.936-8.408-8.936C-477.356,301.229-478.147,302.254-478.147,306.385z
			 M-462.415,330.613c0-6.094-3.076-9.639-10.693-9.639h-5.039v15.176c0,4.189,0.791,4.98,4.512,4.98
			C-465.784,341.131-462.415,337.352-462.415,330.613z"/>
	</g>
	<g>
		<path fill="#E7B315" d="M-465.144,298.488c0,4.072-2.52,6.826-5.684,8.408c-1.904,0.908-5.42,2.051-8.906,3.135
			c4.688,1.963,6.563,5.83,6.563,10.166c0,7.266-6.738,14.355-18.311,14.355c-10.371,0-19.424-5.713-19.424-14.941
			c0-8.701,8.027-12.012,11.074-12.803c-4.014-1.729-6.035-4.775-6.035-7.734c0-3.896,3.457-7.5,10.137-7.5
			c3.047,0,4.98,0.791,6.24,1.816c1.553,1.26,2.227,2.871,2.227,4.131c0,1.992-1.699,3.193-3.369,3.193
			c-1.611,0-3.135-1.084-3.135-3.018c0-1.729,1.318-3.105,3.193-3.281c-0.352-1.025-2.109-1.934-4.57-1.934
			c-4.072,0-6.943,2.52-6.943,7.148c0,2.227,0.645,4.6,3.047,6.826c1.377-0.234,2.988-0.352,3.721-0.352
			c1.436,0,2.402,0.469,2.402,1.377c0,0.732-0.674,1.143-1.67,1.143c-1.523,0-3.428-0.908-4.395-1.318
			c-4.629,1.377-7.793,4.248-7.793,9.844c0,8.262,7.09,12.949,16.084,12.949c8.467,0,15.762-4.131,15.762-10.986
			c0-2.139-0.732-6.563-6.035-8.701c-2.725,0.85-5.303,1.67-6.914,2.285c-2.988,1.143-5.273,2.637-5.273,5.215
			c0,3.135,3.223,4.805,5.508,4.805c1.084,0,3.369-0.41,3.604-1.318c-1.26-0.234-2.813-1.025-2.813-3.047
			c0-1.934,1.436-3.135,3.281-3.135c1.934,0,3.193,1.318,3.193,3.252c0,3.428-3.955,5.156-7.148,5.156
			c-3.398,0-7.441-2.051-7.441-7.031c0-4.131,2.842-6.885,8.291-8.76c3.604-1.201,10.195-2.695,14.648-4.717
			c4.014-1.875,5.156-3.721,5.156-5.771c0-3.428-3.252-6.064-6.973-6.064c-0.967,0-1.611,0.176-1.787,0.527
			c1.084,0.557,1.67,1.758,1.67,2.783c0,1.67-1.553,2.93-3.369,2.93c-1.553,0-3.164-0.967-3.164-2.988
			c0-3.135,3.721-4.16,6.592-4.16C-468.982,290.373-465.144,293.391-465.144,298.488z"/>
	</g>
</g>
<text transform="matrix(1 0 0 1 -447.7808 195.4209)" font-family="'PlayfairDisplay-Regular'" font-size="16.593">ПРОДАЖА</text>
<text transform="matrix(1 0 0 1 -448.5054 216.5771)" font-family="'PlayfairDisplay-Regular'" font-size="24.8895" letter-spacing="4">ВИЛЛ</text>
<g>
	<g>
		
			<text transform="matrix(1 0 0 1 -528.5986 224.5576)" font-family="'PlayfairDisplay-Regular'" font-size="60" letter-spacing="12">П</text>
	</g>
	<g>
		
			<text transform="matrix(1 0 0 1 -490.9673 246.5078)" font-family="'PlayfairDisplay-Regular'" font-size="60" letter-spacing="12">В</text>
	</g>
	
		<text transform="matrix(1 0 0 1 -514.0288 237.7031)" fill="#E7B315" font-family="'PlayfairDisplay-Regular'" font-size="60" letter-spacing="-6">&amp;</text>
</g>
<text transform="matrix(1 0 0 1 -448.5054 230.6953)"><tspan x="0" y="0" font-family="'OpenSans'" font-size="9.2516">http://your-test.site</tspan><tspan x="0" y="11.102" font-family="'OpenSans'" font-size="9.2516">8 (495) 123 - 45 - 67</tspan></text>
<text transform="matrix(1 0 0 1 -243.7725 195.0469)" fill="#FFFFFF" font-family="'PlayfairDisplay-Regular'" font-size="16.593">ПРОДАЖА</text>
<text transform="matrix(1 0 0 1 -244.4971 216.2031)" fill="#FFFFFF" font-family="'PlayfairDisplay-Regular'" font-size="24.8895" letter-spacing="4">ВИЛЛ</text>
<g>
	<g>
		
			<text transform="matrix(1 0 0 1 -324.5903 224.1836)" fill="#FFFFFF" font-family="'PlayfairDisplay-Regular'" font-size="60" letter-spacing="12">П</text>
	</g>
	<g>
		
			<text transform="matrix(1 0 0 1 -286.959 246.1348)" fill="#FFFFFF" font-family="'PlayfairDisplay-Regular'" font-size="60" letter-spacing="12">В</text>
	</g>
	
		<text transform="matrix(1 0 0 1 -310.0205 237.3301)" fill="#E7B315" font-family="'PlayfairDisplay-Regular'" font-size="60" letter-spacing="-6">&amp;</text>
</g>
<text transform="matrix(1 0 0 1 -244.4971 230.3213)"><tspan x="0" y="0" fill="#FFFFFF" font-family="'OpenSans'" font-size="9.2516">http://your-test.site</tspan><tspan x="0" y="11.102" fill="#FFFFFF" font-family="'OpenSans'" font-size="9.2516">8 (495) 123 - 45 - 67</tspan></text>
<g>
	<path d="M-162.67,261.513c-0.887,0.039-1.059,0.173-1.059,1.123v6.48c0,0.95,0.172,1.084,1.059,1.122v0.262
		c-0.364-0.025-0.989-0.038-1.671-0.038c-0.6,0-1.251,0.013-1.659,0.038v-0.262c0.887-0.038,1.06-0.172,1.06-1.122v-6.48
		c0-0.95-0.173-1.123-1.06-1.123h-2.13c-0.887,0-1.059,0.173-1.059,1.123v6.48c0,0.95,0.172,1.084,1.059,1.122v0.262
		c-0.401-0.025-1.059-0.038-1.658-0.038c-0.676,0-1.308,0.013-1.671,0.038v-0.262c0.887-0.038,1.059-0.172,1.059-1.122v-6.48
		c0-0.95-0.172-1.084-1.059-1.123v-0.261c0.363,0.025,0.995,0.038,1.671,0.038c1.021,0,2.13-0.038,2.742-0.038
		s1.685,0.038,2.705,0.038c0.682,0,1.307-0.013,1.671-0.038V261.513z"/>
</g>
<g>
	<path d="M-159.368,270.707c2.018,0.268,2.603,1.264,2.603,2.297c0,1.451-1.151,2.472-3.063,2.472c-0.38,0-1.146-0.037-2.191-0.037
		c-0.598,0-1.227,0.013-1.582,0.037v-0.255c0.865-0.038,1.033-0.168,1.033-1.096V267.8c0-0.928-0.168-1.059-1.033-1.096v-0.256
		c0.355,0.025,0.996,0.038,1.557,0.038c0.803,0,1.619-0.025,1.924-0.025c1.787,0,2.689,0.828,2.689,2.005
		c0,0.902-0.511,1.78-1.937,2.216V270.707z M-161.385,267.8v2.882h0.859c1.5,0,1.873-0.971,1.873-2.079
		c0-1.251-0.51-1.898-1.786-1.898C-161.217,266.704-161.385,266.922-161.385,267.8z M-158.042,272.948
		c0-1.295-0.653-2.049-2.272-2.049h-1.07v3.226c0,0.89,0.168,1.058,0.959,1.058C-158.758,275.183-158.042,274.38-158.042,272.948z"
		/>
</g>
<g>
	<path fill="#E7B315" d="M-158.599,265.211c0,0.872-0.539,1.461-1.217,1.8c-0.407,0.194-1.16,0.439-1.906,0.671
		c1.003,0.42,1.404,1.248,1.404,2.177c0,1.555-1.442,3.072-3.919,3.072c-2.221,0-4.158-1.223-4.158-3.198
		c0-1.862,1.718-2.571,2.37-2.74c-0.858-0.37-1.292-1.022-1.292-1.656c0-0.834,0.74-1.605,2.17-1.605c0.652,0,1.066,0.17,1.336,0.39
		c0.333,0.27,0.477,0.614,0.477,0.884c0,0.427-0.363,0.684-0.721,0.684c-0.345,0-0.671-0.232-0.671-0.646
		c0-0.37,0.282-0.665,0.684-0.703c-0.075-0.219-0.452-0.414-0.979-0.414c-0.872,0-1.486,0.54-1.486,1.53
		c0,0.477,0.138,0.985,0.652,1.462c0.295-0.051,0.64-0.075,0.796-0.075c0.308,0,0.515,0.1,0.515,0.294
		c0,0.157-0.145,0.245-0.357,0.245c-0.326,0-0.734-0.194-0.94-0.282c-0.991,0.295-1.669,0.909-1.669,2.107
		c0,1.769,1.518,2.771,3.443,2.771c1.813,0,3.374-0.884,3.374-2.352c0-0.458-0.157-1.405-1.292-1.862
		c-0.583,0.182-1.135,0.357-1.48,0.489c-0.64,0.244-1.129,0.563-1.129,1.116c0,0.671,0.69,1.028,1.18,1.028
		c0.231,0,0.721-0.088,0.771-0.282c-0.27-0.051-0.603-0.22-0.603-0.652c0-0.414,0.308-0.671,0.702-0.671
		c0.414,0,0.684,0.282,0.684,0.696c0,0.733-0.847,1.104-1.53,1.104c-0.727,0-1.593-0.439-1.593-1.505
		c0-0.885,0.608-1.475,1.775-1.876c0.771-0.257,2.183-0.576,3.136-1.009c0.858-0.401,1.104-0.797,1.104-1.236
		c0-0.733-0.696-1.298-1.492-1.298c-0.207,0-0.346,0.038-0.383,0.113c0.231,0.119,0.357,0.376,0.357,0.596
		c0,0.357-0.333,0.627-0.722,0.627c-0.332,0-0.677-0.207-0.677-0.64c0-0.671,0.796-0.891,1.411-0.891
		C-159.42,263.474-158.599,264.12-158.599,265.211z"/>
</g>
<g>
	<g>
		
			<text transform="matrix(1 0 0 1 -341.1709 -61.0566)" font-family="'PlayfairDisplay-Regular'" font-size="12.8061" letter-spacing="2">E</text>
	</g>
	<g>
		
			<text transform="matrix(1 0 0 1 -333.1396 -56.3716)" font-family="'PlayfairDisplay-Regular'" font-size="12.8061" letter-spacing="2">L</text>
	</g>
	
		<text transform="matrix(1 0 0 1 -338.061 -58.25)" fill="#E7B315" font-family="'PlayfairDisplay-Regular'" font-size="12.8061" letter-spacing="-1">&amp;</text>
</g>
<g>
	<g>
		<path d="M-333.812,22.297c-0.87-0.038-2.077-0.038-2.934-0.038c-0.77,0-2.459,0-3.716,0.038v-0.256
			c0.87-0.038,1.039-0.169,1.039-1.101v-6.356c0-0.932-0.169-1.063-1.039-1.101v-0.256c1.257,0.038,2.947,0.038,3.716,0.038
			c0.782,0,1.883,0,2.677-0.038c-0.063,0.601-0.087,1.22-0.087,1.514c0,0.307,0.013,0.601,0.038,0.795h-0.294
			c-0.169-1.514-0.363-2.015-1.721-2.015h-1.063c-0.87,0-1.039,0.131-1.039,1.063v3.022h0.851c1.113,0,1.088-1.076,1.188-1.689
			h0.294c-0.038,0.544-0.043,0.914-0.043,1.208c0,0.238,0.006,0.425,0.006,0.613c0,0.419,0.013,0.844,0.075,1.82h-0.294
			c-0.1-0.819-0.113-1.695-1.226-1.695h-0.851v3.078c0,0.932,0.169,1.063,1.039,1.063h0.938c1.602,0,1.92-0.576,2.102-2.271h0.294
			c-0.025,0.231-0.038,0.569-0.038,0.926C-333.899,20.978-333.875,21.647-333.812,22.297z"/>
	</g>
	<g>
		<path d="M-329.165,18.167c-0.87,0.038-1.039,0.169-1.039,1.101v6.356c0,0.932,0.169,1.063,1.039,1.063h0.938
			c1.602,0,1.92-0.613,2.102-2.396h0.294c-0.025,0.269-0.038,0.638-0.038,1.051c0,0.319,0.025,0.988,0.088,1.639
			c-0.87-0.038-2.077-0.038-2.934-0.038c-0.77,0-2.459,0-3.716,0.038v-0.256c0.87-0.038,1.039-0.169,1.039-1.101v-6.356
			c0-0.932-0.169-1.063-1.039-1.101v-0.256c0.356,0.025,0.976,0.038,1.639,0.038c0.588,0,1.232-0.013,1.626-0.038V18.167z"/>
	</g>
	<g>
		<path fill="#E7B315" d="M-327.424,17.584c0,0.87-0.538,1.458-1.213,1.796c-0.407,0.194-1.158,0.438-1.902,0.669
			c1.001,0.419,1.401,1.245,1.401,2.17c0,1.552-1.439,3.066-3.91,3.066c-2.215,0-4.148-1.22-4.148-3.191
			c0-1.858,1.714-2.565,2.365-2.734c-0.857-0.369-1.289-1.02-1.289-1.651c0-0.832,0.738-1.602,2.165-1.602
			c0.651,0,1.063,0.169,1.333,0.388c0.332,0.269,0.476,0.613,0.476,0.882c0,0.425-0.363,0.682-0.72,0.682
			c-0.344,0-0.669-0.231-0.669-0.645c0-0.369,0.281-0.663,0.682-0.701c-0.075-0.219-0.45-0.413-0.976-0.413
			c-0.87,0-1.482,0.538-1.482,1.526c0,0.476,0.138,0.982,0.65,1.458c0.294-0.05,0.638-0.075,0.794-0.075
			c0.307,0,0.513,0.1,0.513,0.294c0,0.156-0.144,0.244-0.356,0.244c-0.326,0-0.732-0.194-0.938-0.281
			c-0.989,0.294-1.664,0.907-1.664,2.102c0,1.764,1.514,2.765,3.435,2.765c1.808,0,3.366-0.882,3.366-2.346
			c0-0.457-0.156-1.401-1.289-1.858c-0.582,0.182-1.132,0.356-1.477,0.488c-0.638,0.244-1.126,0.563-1.126,1.114
			c0,0.669,0.688,1.026,1.176,1.026c0.231,0,0.72-0.087,0.77-0.281c-0.269-0.05-0.601-0.219-0.601-0.651
			c0-0.413,0.307-0.669,0.701-0.669c0.413,0,0.682,0.282,0.682,0.695c0,0.732-0.845,1.101-1.526,1.101
			c-0.726,0-1.589-0.438-1.589-1.501c0-0.882,0.607-1.47,1.771-1.871c0.77-0.257,2.177-0.576,3.128-1.007
			c0.857-0.4,1.101-0.794,1.101-1.232c0-0.732-0.694-1.295-1.489-1.295c-0.207,0-0.344,0.037-0.382,0.112
			c0.231,0.119,0.357,0.375,0.357,0.594c0,0.357-0.332,0.626-0.72,0.626c-0.332,0-0.675-0.207-0.675-0.638
			c0-0.669,0.794-0.889,1.407-0.889C-328.243,15.851-327.424,16.496-327.424,17.584z"/>
	</g>
</g>
</svg>
