<?xml version="1.0" encoding="utf-8"?>
<!-- Generator: Adobe Illustrator 15.0.0, SVG Export Plug-In . SVG Version: 6.00 Build 0)  -->
<!DOCTYPE svg PUBLIC "-//W3C//DTD SVG 1.1//EN" "http://www.w3.org/Graphics/SVG/1.1/DTD/svg11.dtd">
<svg version="1.1" id="Слой_1" xmlns="http://www.w3.org/2000/svg" xmlns:xlink="http://www.w3.org/1999/xlink" x="0px" y="0px"
	 width="247px" height="77px" viewBox="0 0 247 77" enable-background="new 0 0 247 77" xml:space="preserve">
<text transform="matrix(1 0 0 1 350.6519 30.7266)" fill="#FFFFFF" font-family="'PlayfairDisplay-Regular'" font-size="29.4402">ПРОДАЖА</text>
<text transform="matrix(1 0 0 1 349.3667 68.2627)" fill="#FFFFFF" font-family="'PlayfairDisplay-Regular'" font-size="44.1603" letter-spacing="8">ВИЛЛ</text>
<g>
	<g>
		
			<text transform="matrix(1 0 0 1 269.2725 48.5576)" fill="#FFFFFF" font-family="'PlayfairDisplay-Regular'" font-size="60" letter-spacing="12">П</text>
	</g>
	<g>
		
			<text transform="matrix(1 0 0 1 306.9038 70.5078)" fill="#FFFFFF" font-family="'PlayfairDisplay-Regular'" font-size="60" letter-spacing="12">В</text>
	</g>
	
		<text transform="matrix(1 0 0 1 283.8423 61.7031)" fill="#E7B315" font-family="'PlayfairDisplay-Regular'" font-size="60" letter-spacing="-6">&amp;</text>
</g>
<g>
	<path fill="#FFFFFF" d="M110.695,10.474c-1.998,0.086-2.386,0.388-2.386,2.53v14.604c0,2.142,0.388,2.443,2.386,2.53v0.589
		c-0.819-0.058-2.228-0.086-3.766-0.086c-1.351,0-2.817,0.029-3.737,0.086v-0.589c1.998-0.086,2.386-0.388,2.386-2.53V13.004
		c0-2.142-0.388-2.53-2.386-2.53h-4.801c-1.998,0-2.386,0.388-2.386,2.53v14.604c0,2.142,0.388,2.443,2.386,2.53v0.589
		c-0.906-0.058-2.386-0.086-3.737-0.086c-1.523,0-2.946,0.029-3.766,0.086v-0.589c1.998-0.086,2.386-0.388,2.386-2.53V13.004
		c0-2.142-0.388-2.444-2.386-2.53V9.885c0.819,0.057,2.242,0.086,3.766,0.086c2.3,0,4.801-0.086,6.181-0.086
		s3.795,0.086,6.095,0.086c1.538,0,2.947-0.029,3.766-0.086V10.474z"/>
	<path fill="#FFFFFF" d="M118.286,27.607c0,2.142,0.503,2.443,2.976,2.53v0.589c-1.021-0.058-2.731-0.086-4.327-0.086
		c-1.523,0-2.946,0.029-3.766,0.086v-0.589c1.998-0.086,2.386-0.388,2.386-2.53V13.004c0-2.142-0.388-2.444-2.386-2.53V9.885
		c0.819,0.057,2.3,0.086,3.593,0.086c1.854,0,3.737-0.058,4.441-0.058c4.744,0,7.101,2.386,7.101,5.807
		c0,2.846-1.653,6.583-7.748,6.583h-2.271V27.607z M118.286,13.004v8.71h1.984c4.168,0,5.088-2.674,5.088-5.678
		c0-3.708-1.323-5.563-4.887-5.563C118.674,10.474,118.286,10.977,118.286,13.004z"/>
	<path fill="#FFFFFF" d="M149.408,20.133c0,6.583-3.881,11.01-9.357,11.01c-5.592,0-9.329-3.924-9.329-10.666
		c0-6.583,3.881-11.01,9.357-11.01C145.67,9.468,149.408,13.392,149.408,20.133z M133.654,20.363c0,6.267,2.889,10.248,6.512,10.248
		c3.823,0,6.295-4.269,6.295-10.363c0-6.267-2.874-10.249-6.496-10.249C136.126,10,133.654,14.269,133.654,20.363z"/>
	<path fill="#FFFFFF" d="M167.836,30.137c-0.144,1.38-0.201,2.803-0.201,3.479c0,0.704,0.028,1.38,0.086,1.826h-0.676
		c-0.388-3.479-0.819-4.715-3.938-4.715h-8.395c-3.118,0-3.564,1.236-3.952,4.715h-0.676c0.058-0.446,0.086-1.122,0.086-1.826
		c0-0.676-0.058-2.099-0.201-3.479h0.532c4.527,0,5.002-9.3,5.477-17.133c0.014-0.216,0.014-0.403,0.014-0.589
		c0-1.538-0.488-1.869-2.4-1.94V9.885c0.819,0.057,2.085,0.086,3.033,0.086c0.877,0,1.739-0.086,2.587-0.086
		c1.51,0,2.53,0.086,4.212,0.086c1.15,0,2.674-0.029,3.507-0.086v0.589c-1.997,0.086-2.386,0.388-2.386,2.53v14.604
		c0,2.142,0.389,2.53,2.386,2.53H167.836z M161.799,13.004c0-2.142-0.374-2.53-2.372-2.53h-0.388c-2.084,0-2.185,0.445-2.386,2.53
		c-0.532,5.778-0.518,14.805-4.169,17.133h6.942c1.998,0,2.372-0.388,2.372-2.53V13.004z"/>
	<path fill="#FFFFFF" d="M185.086,28.254c0.59,1.495,1.424,1.854,2.042,1.883v0.589c-0.806-0.058-2.042-0.086-3.163-0.086
		c-1.523,0-2.932,0.029-3.766,0.086v-0.589c1.423-0.058,2.084-0.273,2.084-1.092c0-0.345-0.114-0.791-0.345-1.38l-1.811-4.83h-7.102
		l-1.207,3.119c-0.402,1.021-0.589,1.811-0.589,2.415c0,1.279,0.876,1.725,2.559,1.768v0.589c-1.122-0.058-2.357-0.086-3.393-0.086
		c-0.992,0-1.61,0.029-2.199,0.086v-0.589c0.762-0.172,1.639-0.791,2.314-2.559l6.928-17.838h0.475L185.086,28.254z M176.621,13.464
		l-3.378,8.782h6.67L176.621,13.464z"/>
	<path fill="#FFFFFF" d="M215.848,29.26c-0.762,1.107-1.494,1.883-3.147,1.883c-1.38,0-2.559-0.561-3.147-3.191l-0.819-3.637
		c-0.561-2.444-1.007-4.097-4.011-4.097h-1.94v7.388c0,2.142,0.374,2.443,2.386,2.53v0.589c-0.833-0.058-2.242-0.086-3.766-0.086
		c-1.365,0-2.832,0.029-3.752,0.086v-0.589c2.013-0.086,2.387-0.388,2.387-2.53v-7.388h-1.94c-3.004,0-3.436,1.653-3.996,4.097
		l-0.834,3.637c-0.589,2.63-1.768,3.191-3.147,3.191c-1.653,0-2.386-0.776-3.148-1.883l0.446-0.331
		c0.546,0.69,0.891,1.121,1.609,1.121c0.819,0,1.05-0.661,1.452-2.415l0.848-3.708c0.748-3.292,3.091-4.14,5.864-4.254l-5.533-7.058
		c-1.121-1.409-2.271-1.969-3.479-2.142V9.885c0.589,0.057,1.495,0.086,2.501,0.086c1.035,0,2.271-0.029,3.392-0.086v0.589
		c-1.25,0.028-1.825,0.388-1.825,1.063c0,0.647,0.532,1.595,1.495,2.817l2.832,3.593c0.732,0.949,1.825,1.682,3.464,1.71v-6.655
		c0-2.142-0.374-2.444-2.387-2.53V9.885c0.92,0.057,2.387,0.086,3.752,0.086c1.523,0,2.933-0.029,3.766-0.086v0.589
		c-2.012,0.086-2.386,0.388-2.386,2.53v6.655c1.653-0.029,2.731-0.762,3.464-1.71l2.832-3.593c0.963-1.222,1.495-2.17,1.495-2.817
		c0-0.676-0.561-1.035-1.812-1.063V9.885c1.106,0.057,2.343,0.086,3.378,0.086c1.006,0,1.912-0.029,2.501-0.086v0.589
		c-1.207,0.172-2.357,0.733-3.464,2.142l-5.549,7.058c2.774,0.115,5.117,0.963,5.865,4.254l0.848,3.708
		c0.402,1.753,0.633,2.415,1.452,2.415c0.719,0,1.078-0.431,1.609-1.121L215.848,29.26z"/>
	<path fill="#FFFFFF" d="M232.567,28.254c0.59,1.495,1.424,1.854,2.042,1.883v0.589c-0.806-0.058-2.042-0.086-3.163-0.086
		c-1.523,0-2.932,0.029-3.766,0.086v-0.589c1.423-0.058,2.084-0.273,2.084-1.092c0-0.345-0.114-0.791-0.345-1.38l-1.811-4.83h-7.102
		l-1.207,3.119c-0.402,1.021-0.589,1.811-0.589,2.415c0,1.279,0.876,1.725,2.559,1.768v0.589c-1.122-0.058-2.357-0.086-3.393-0.086
		c-0.992,0-1.61,0.029-2.199,0.086v-0.589c0.762-0.172,1.639-0.791,2.314-2.559l6.928-17.838h0.475L232.567,28.254z M224.101,13.464
		l-3.378,8.782h6.67L224.101,13.464z"/>
</g>
<g>
	<path fill="#FFFFFF" d="M104.882,51.747c6.985,0.928,9.012,4.377,9.012,7.956c0,5.023-3.989,8.56-10.608,8.56
		c-1.315,0-3.967-0.129-7.589-0.129c-2.07,0-4.248,0.043-5.477,0.129v-0.884c2.997-0.13,3.579-0.582,3.579-3.795V41.679
		c0-3.213-0.582-3.666-3.579-3.795V37c1.229,0.086,3.45,0.129,5.39,0.129c2.782,0,5.606-0.086,6.663-0.086
		c6.188,0,9.314,2.867,9.314,6.942c0,3.126-1.768,6.166-6.705,7.676V51.747z M97.896,41.679v9.982h2.976
		c5.196,0,6.49-3.363,6.49-7.201c0-4.334-1.768-6.576-6.188-6.576C98.479,37.884,97.896,38.638,97.896,41.679z M109.475,59.509
		c0-4.484-2.264-7.093-7.87-7.093h-3.708v11.168c0,3.083,0.582,3.665,3.32,3.665C106.995,67.249,109.475,64.468,109.475,59.509z"/>
	<path fill="#FFFFFF" d="M156.86,37.884c-2.997,0.129-3.579,0.582-3.579,3.795v21.905c0,3.213,0.582,3.665,3.579,3.795v0.884
		c-1.229-0.086-3.343-0.129-5.649-0.129c-2.026,0-4.226,0.043-5.605,0.129v-0.884c2.997-0.13,3.579-0.582,3.579-3.795V42.691
		l-15.243,21.561c0.107,2.609,0.797,2.997,3.578,3.127v0.884c-1.357-0.086-3.578-0.129-5.605-0.129c-2.285,0-4.42,0.043-5.649,0.129
		v-0.884c2.997-0.13,3.58-0.582,3.58-3.795V41.679c0-3.213-0.583-3.666-3.58-3.795V37c1.229,0.086,3.364,0.129,5.649,0.129
		c2.027,0,4.248-0.043,5.605-0.129v0.884c-2.996,0.129-3.578,0.582-3.578,3.795v20.913l15.222-21.604
		c-0.087-2.587-0.798-2.975-3.558-3.104V37c1.38,0.086,3.579,0.129,5.605,0.129c2.307,0,4.42-0.043,5.649-0.129V37.884z"/>
	<path fill="#FFFFFF" d="M196.074,37.884c-2.996,0.129-3.579,0.582-3.579,3.795v21.905c0,3.213,0.583,3.665,3.579,3.795v0.884
		c-1.229-0.086-3.363-0.129-5.648-0.129c-2.394,0-4.959,0.043-6.49,0.129v-0.884c3.709-0.13,4.464-0.582,4.464-3.795V41.679
		c0-3.213-0.583-3.795-3.579-3.795h-0.583c-3.126,0-3.298,0.668-3.579,3.795c-0.884,10.37-0.754,27.209-9.228,27.209
		c-1.94,0-4.01-0.798-4.01-3.019c0-1.53,1.1-2.501,2.608-2.501c1.272,0,2.242,0.733,2.242,1.94c0,1.315-0.668,1.983-1.897,2.695
		c0.41,0.043,0.841,0.043,1.057,0.043c6.813,0,7.503-14.187,8.215-26.368c0.021-0.367,0.043-0.69,0.043-0.992
		c0-2.221-0.798-2.695-3.622-2.803V37c1.25,0.086,3.147,0.129,4.549,0.129c1.337,0,2.609-0.129,3.881-0.129
		c2.265,0,3.816,0.129,6.317,0.129c1.726,0,4.032-0.043,5.261-0.129V37.884z"/>
	<path fill="#FFFFFF" d="M235.288,37.884c-2.997,0.129-3.579,0.582-3.579,3.795v21.905c0,3.213,0.582,3.665,3.579,3.795v0.884
		c-1.229-0.086-3.363-0.129-5.648-0.129c-2.394,0-4.959,0.043-6.49,0.129v-0.884c3.709-0.13,4.464-0.582,4.464-3.795V41.679
		c0-3.213-0.583-3.795-3.579-3.795h-0.583c-3.126,0-3.298,0.668-3.578,3.795c-0.885,10.37-0.755,27.209-9.229,27.209
		c-1.94,0-4.01-0.798-4.01-3.019c0-1.53,1.1-2.501,2.608-2.501c1.272,0,2.242,0.733,2.242,1.94c0,1.315-0.668,1.983-1.897,2.695
		c0.41,0.043,0.841,0.043,1.057,0.043c6.813,0,7.503-14.187,8.215-26.368c0.021-0.367,0.043-0.69,0.043-0.992
		c0-2.221-0.798-2.695-3.622-2.803V37c1.25,0.086,3.147,0.129,4.549,0.129c1.337,0,2.609-0.129,3.881-0.129
		c2.265,0,3.816,0.129,6.317,0.129c1.726,0,4.032-0.043,5.261-0.129V37.884z"/>
</g>
<g>
	<g>
		<path fill="#FFFFFF" d="M51.163,7.278C47.091,7.454,46.3,8.069,46.3,12.435V42.2c0,4.365,0.791,4.98,4.863,5.156v1.201
			c-1.67-0.117-4.541-0.176-7.676-0.176c-2.754,0-5.742,0.059-7.617,0.176v-1.201c4.072-0.176,4.863-0.791,4.863-5.156V12.435
			c0-4.365-0.791-5.156-4.863-5.156h-9.785c-4.072,0-4.863,0.791-4.863,5.156V42.2c0,4.365,0.791,4.98,4.863,5.156v1.201
			c-1.846-0.117-4.863-0.176-7.617-0.176c-3.105,0-6.006,0.059-7.676,0.176v-1.201c4.072-0.176,4.863-0.791,4.863-5.156V12.435
			c0-4.365-0.791-4.98-4.863-5.156V6.077c1.67,0.117,4.57,0.176,7.676,0.176c4.688,0,9.785-0.176,12.598-0.176
			S38.8,6.253,43.487,6.253c3.135,0,6.006-0.059,7.676-0.176V7.278z"/>
	</g>
	<g>
		<path fill="#FFFFFF" d="M68.345,48.066c9.492,1.26,12.246,5.947,12.246,10.811c0,6.826-5.42,11.631-14.414,11.631
			c-1.787,0-5.391-0.176-10.313-0.176c-2.813,0-5.771,0.059-7.441,0.176v-1.201c4.072-0.176,4.863-0.791,4.863-5.156V34.385
			c0-4.365-0.791-4.98-4.863-5.156v-1.201c1.67,0.117,4.688,0.176,7.324,0.176c3.779,0,7.617-0.117,9.053-0.117
			c8.408,0,12.656,3.896,12.656,9.434c0,4.248-2.402,8.378-9.111,10.429V48.066z M58.853,34.385v13.564h4.043
			c7.061,0,8.818-4.57,8.818-9.785c0-5.889-2.402-8.936-8.408-8.936C59.644,29.229,58.853,30.254,58.853,34.385z M74.585,58.613
			c0-6.094-3.076-9.639-10.693-9.639h-5.039V64.15c0,4.189,0.791,4.98,4.512,4.98C71.216,69.131,74.585,65.352,74.585,58.613z"/>
	</g>
	<g>
		<path fill="#E7B315" d="M71.856,26.489c0,4.072-2.52,6.826-5.684,8.408c-1.904,0.908-5.42,2.051-8.906,3.135
			c4.688,1.962,6.563,5.83,6.563,10.166c0,7.266-6.738,14.355-18.311,14.355c-10.371,0-19.424-5.713-19.424-14.941
			c0-8.701,8.027-12.011,11.074-12.802c-4.014-1.729-6.035-4.775-6.035-7.734c0-3.896,3.457-7.5,10.137-7.5
			c3.047,0,4.98,0.791,6.24,1.816c1.553,1.26,2.227,2.871,2.227,4.131c0,1.992-1.699,3.193-3.369,3.193
			c-1.611,0-3.135-1.084-3.135-3.018c0-1.729,1.318-3.105,3.193-3.281c-0.352-1.025-2.109-1.934-4.57-1.934
			c-4.072,0-6.943,2.52-6.943,7.148c0,2.227,0.645,4.6,3.047,6.826c1.377-0.234,2.988-0.352,3.721-0.352
			c1.436,0,2.402,0.469,2.402,1.377c0,0.732-0.674,1.143-1.67,1.143c-1.523,0-3.428-0.908-4.395-1.318
			c-4.629,1.377-7.793,4.248-7.793,9.843c0,8.262,7.09,12.949,16.084,12.949c8.467,0,15.762-4.131,15.762-10.986
			c0-2.139-0.732-6.563-6.035-8.701c-2.725,0.849-5.303,1.669-6.914,2.285c-2.988,1.143-5.273,2.637-5.273,5.215
			c0,3.135,3.223,4.805,5.508,4.805c1.084,0,3.369-0.41,3.604-1.318c-1.26-0.234-2.813-1.025-2.813-3.047
			c0-1.934,1.436-3.135,3.281-3.135c1.934,0,3.193,1.318,3.193,3.252c0,3.428-3.955,5.156-7.148,5.156
			c-3.398,0-7.441-2.051-7.441-7.031c0-4.131,2.842-6.884,8.291-8.759c3.604-1.201,10.195-2.695,14.648-4.717
			c4.014-1.875,5.156-3.721,5.156-5.771c0-3.428-3.252-6.064-6.973-6.064c-0.967,0-1.611,0.176-1.787,0.527
			c1.084,0.557,1.67,1.758,1.67,2.783c0,1.67-1.553,2.93-3.369,2.93c-1.553,0-3.164-0.967-3.164-2.988
			c0-3.135,3.721-4.16,6.592-4.16C68.018,18.374,71.856,21.391,71.856,26.489z"/>
	</g>
</g>
<text transform="matrix(1 0 0 1 350.0908 101.4209)" font-family="'PlayfairDisplay-Regular'" font-size="16.593">ПРОДАЖА</text>
<text transform="matrix(1 0 0 1 349.3662 122.5771)" font-family="'PlayfairDisplay-Regular'" font-size="24.8895" letter-spacing="4">ВИЛЛ</text>
<g>
	<g>
		
			<text transform="matrix(1 0 0 1 269.2729 130.5576)" font-family="'PlayfairDisplay-Regular'" font-size="60" letter-spacing="12">П</text>
	</g>
	<g>
		
			<text transform="matrix(1 0 0 1 306.9043 152.5078)" font-family="'PlayfairDisplay-Regular'" font-size="60" letter-spacing="12">В</text>
	</g>
	
		<text transform="matrix(1 0 0 1 283.8428 143.7031)" fill="#E7B315" font-family="'PlayfairDisplay-Regular'" font-size="60" letter-spacing="-6">&amp;</text>
</g>
<text transform="matrix(1 0 0 1 349.3662 136.6953)"><tspan x="0" y="0" font-family="'OpenSans'" font-size="9.2516">http://your-test.site</tspan><tspan x="0" y="11.102" font-family="'OpenSans'" font-size="9.2516">8 (495) 123 - 45 - 67</tspan></text>
<text transform="matrix(1 0 0 1 536.0908 185.4209)" fill="#FFFFFF" font-family="'PlayfairDisplay-Regular'" font-size="16.593">ПРОДАЖА</text>
<text transform="matrix(1 0 0 1 535.3662 206.5771)" fill="#FFFFFF" font-family="'PlayfairDisplay-Regular'" font-size="24.8895" letter-spacing="4">ВИЛЛ</text>
<g>
	<g>
		
			<text transform="matrix(1 0 0 1 455.2734 214.5576)" fill="#FFFFFF" font-family="'PlayfairDisplay-Regular'" font-size="60" letter-spacing="12">П</text>
	</g>
	<g>
		
			<text transform="matrix(1 0 0 1 492.9043 236.5078)" fill="#FFFFFF" font-family="'PlayfairDisplay-Regular'" font-size="60" letter-spacing="12">В</text>
	</g>
	
		<text transform="matrix(1 0 0 1 469.8428 227.7031)" fill="#E7B315" font-family="'PlayfairDisplay-Regular'" font-size="60" letter-spacing="-6">&amp;</text>
</g>
<text transform="matrix(1 0 0 1 535.3662 220.6953)"><tspan x="0" y="0" fill="#FFFFFF" font-family="'OpenSans'" font-size="9.2516">http://your-test.site</tspan><tspan x="0" y="11.102" fill="#FFFFFF" font-family="'OpenSans'" font-size="9.2516">8 (495) 123 - 45 - 67</tspan></text>
<g>
	<path d="M493.193,99.054c-0.887,0.039-1.059,0.173-1.059,1.123v6.48c0,0.95,0.172,1.084,1.059,1.122v0.262
		c-0.364-0.025-0.989-0.038-1.671-0.038c-0.6,0-1.251,0.013-1.659,0.038v-0.262c0.887-0.038,1.06-0.172,1.06-1.122v-6.48
		c0-0.95-0.173-1.123-1.06-1.123h-2.13c-0.887,0-1.059,0.173-1.059,1.123v6.48c0,0.95,0.172,1.084,1.059,1.122v0.262
		c-0.401-0.025-1.059-0.038-1.658-0.038c-0.676,0-1.308,0.013-1.671,0.038v-0.262c0.887-0.038,1.059-0.172,1.059-1.122v-6.48
		c0-0.95-0.172-1.084-1.059-1.123v-0.261c0.363,0.025,0.995,0.038,1.671,0.038c1.021,0,2.13-0.038,2.742-0.038
		s1.685,0.038,2.705,0.038c0.682,0,1.307-0.013,1.671-0.038V99.054z"/>
</g>
<g>
	<path d="M496.495,108.248c2.018,0.268,2.603,1.264,2.603,2.297c0,1.451-1.151,2.472-3.063,2.472c-0.38,0-1.146-0.037-2.191-0.037
		c-0.598,0-1.227,0.013-1.582,0.037v-0.255c0.865-0.038,1.033-0.168,1.033-1.096v-6.325c0-0.928-0.168-1.059-1.033-1.096v-0.256
		c0.355,0.025,0.996,0.038,1.557,0.038c0.803,0,1.619-0.025,1.924-0.025c1.787,0,2.689,0.828,2.689,2.005
		c0,0.902-0.511,1.78-1.937,2.216V108.248z M494.479,105.341v2.882h0.859c1.5,0,1.873-0.971,1.873-2.079
		c0-1.251-0.51-1.898-1.786-1.898C494.646,104.245,494.479,104.463,494.479,105.341z M497.821,110.489
		c0-1.295-0.653-2.049-2.272-2.049h-1.07v3.226c0,0.89,0.168,1.058,0.959,1.058C497.105,112.724,497.821,111.921,497.821,110.489z"
		/>
</g>
<g>
	<path fill="#E7B315" d="M497.265,102.752c0,0.872-0.539,1.461-1.217,1.8c-0.407,0.194-1.16,0.439-1.906,0.671
		c1.003,0.42,1.404,1.248,1.404,2.177c0,1.555-1.442,3.072-3.919,3.072c-2.221,0-4.158-1.223-4.158-3.198
		c0-1.862,1.718-2.571,2.37-2.74c-0.858-0.37-1.292-1.022-1.292-1.656c0-0.834,0.74-1.605,2.17-1.605c0.652,0,1.066,0.17,1.336,0.39
		c0.333,0.27,0.477,0.614,0.477,0.884c0,0.427-0.363,0.684-0.721,0.684c-0.345,0-0.671-0.232-0.671-0.646
		c0-0.37,0.282-0.665,0.684-0.703c-0.075-0.219-0.452-0.414-0.979-0.414c-0.872,0-1.486,0.54-1.486,1.53
		c0,0.477,0.138,0.985,0.652,1.462c0.295-0.051,0.64-0.075,0.796-0.075c0.308,0,0.515,0.1,0.515,0.294
		c0,0.157-0.145,0.245-0.357,0.245c-0.326,0-0.734-0.194-0.94-0.282c-0.991,0.295-1.669,0.909-1.669,2.107
		c0,1.769,1.518,2.771,3.443,2.771c1.813,0,3.374-0.884,3.374-2.352c0-0.458-0.157-1.405-1.292-1.862
		c-0.583,0.182-1.135,0.357-1.48,0.489c-0.64,0.244-1.129,0.563-1.129,1.116c0,0.671,0.69,1.028,1.18,1.028
		c0.231,0,0.721-0.088,0.771-0.282c-0.27-0.051-0.603-0.22-0.603-0.652c0-0.414,0.308-0.671,0.702-0.671
		c0.414,0,0.684,0.282,0.684,0.696c0,0.733-0.847,1.104-1.53,1.104c-0.727,0-1.593-0.439-1.593-1.505
		c0-0.885,0.608-1.475,1.775-1.876c0.771-0.257,2.183-0.576,3.136-1.009c0.858-0.401,1.104-0.797,1.104-1.236
		c0-0.733-0.696-1.298-1.492-1.298c-0.207,0-0.346,0.038-0.383,0.113c0.231,0.119,0.357,0.376,0.357,0.596
		c0,0.357-0.333,0.627-0.722,0.627c-0.332,0-0.677-0.207-0.677-0.64c0-0.671,0.796-0.891,1.411-0.891
		C496.443,101.015,497.265,101.661,497.265,102.752z"/>
</g>
</svg>
